<?xml version="1.0" standalone="no"?>
<!DOCTYPE svg PUBLIC "-//W3C//DTD SVG 20010904//EN"
 "http://www.w3.org/TR/2001/REC-SVG-20010904/DTD/svg10.dtd">
<svg version="1.0" xmlns="http://www.w3.org/2000/svg"
 width="225.000000pt" height="225.000000pt" viewBox="0 0 225.000000 225.000000"
 preserveAspectRatio="xMidYMid meet">

<g transform="translate(0.000000,225.000000) scale(0.100000,-0.100000)"
fill="#000000" stroke="none">
<path d="M1764 1632 c-230 -213 -232 -214 -246 -206 -6 4 -8 3 -4 -4 7 -11
-151 -159 -166 -154 -5 1 -7 -2 -4 -7 4 -5 -19 -32 -50 -59 -45 -41 -66 -52
-115 -61 -66 -13 -111 -1 -117 31 -6 30 44 85 82 91 19 3 53 18 77 33 24 16
48 27 54 25 5 -1 7 1 3 4 -4 4 -1 23 7 42 22 53 18 81 -15 114 -26 26 -34 29
-67 24 -109 -18 -180 -72 -190 -144 -4 -29 -1 -48 12 -68 10 -16 14 -25 10
-21 -5 4 -15 3 -22 -4 -11 -9 -17 -9 -25 3 -8 11 -9 11 -4 -3 3 -12 -9 -27
-44 -53 -74 -55 -192 -185 -228 -253 -47 -89 -72 -167 -72 -229 0 -112 61
-158 157 -118 20 9 43 13 50 10 8 -2 11 0 8 5 -3 6 -2 10 4 10 6 0 40 28 76
61 36 34 65 57 65 52 0 -17 -51 -176 -80 -253 -16 -41 -28 -76 -26 -77 2 -2
48 45 102 105 55 60 100 108 102 107 4 -4 29 -107 37 -155 8 -45 8 -45 16 -15
23 79 61 369 54 411 -14 93 -87 136 -185 110 -30 -8 -56 -13 -58 -11 -6 6 84
63 158 99 66 32 72 34 48 12 -28 -25 -36 -46 -19 -46 5 0 14 7 21 15 7 8 17
12 24 8 6 -3 8 -3 5 1 -8 8 134 147 153 149 7 2 13 5 13 9 0 13 48 57 57 52 5
-3 7 -2 6 3 -4 13 114 123 125 116 6 -3 7 -1 4 5 -4 5 61 74 145 154 251 236
273 258 263 257 -5 0 -96 -79 -201 -177z"/>
<path d="M957 1629 c7 -7 15 -10 18 -7 3 3 -2 9 -12 12 -14 6 -15 5 -6 -5z"/>
<path d="M1468 1533 c7 -3 16 -2 19 1 4 3 -2 6 -13 5 -11 0 -14 -3 -6 -6z"/>
<path d="M1128 1513 c7 -3 16 -2 19 1 4 3 -2 6 -13 5 -11 0 -14 -3 -6 -6z"/>
<path d="M1520 1503 c0 -4 5 -15 10 -23 8 -13 10 -13 10 2 0 9 -4 20 -10 23
-5 3 -10 3 -10 -2z"/>
<path d="M1587 1405 c-4 -8 -3 -16 1 -19 4 -3 9 4 9 15 2 23 -3 25 -10 4z"/>
<path d="M1300 1351 c0 -6 5 -13 10 -16 6 -3 10 1 10 9 0 9 -4 16 -10 16 -5 0
-10 -4 -10 -9z"/>
<path d="M884 1230 c0 -13 4 -16 10 -10 7 7 7 13 0 20 -6 6 -10 3 -10 -10z"/>
<path d="M917 1239 c7 -7 15 -10 18 -7 3 3 -2 9 -12 12 -14 6 -15 5 -6 -5z"/>
<path d="M745 1110 c-10 -11 -16 -22 -14 -24 2 -2 12 7 22 20 22 29 17 32 -8
4z"/>
</g>
</svg>
